<?xml version="1.0" encoding="utf-8"?>
<!-- Generator: Adobe Illustrator 23.1.1, SVG Export Plug-In . SVG Version: 6.00 Build 0)  -->
<svg version="1.1" id="Layer_1" xmlns="http://www.w3.org/2000/svg" xmlns:xlink="http://www.w3.org/1999/xlink" x="0px" y="0px"
	 viewBox="0 0 519 133" style="enable-background:new 0 0 519 133;" xml:space="preserve">
<style type="text/css">
	.st0{fill:#46466C;}
	.st1{fill:#FF9800;}
</style>
<g>
	<g>
		<g>
			<path class="st0" d="M133.15,98c-6.46,0-12.99-2.26-18.12-6.83l5.55-6.65c3.84,3.17,7.87,5.18,12.75,5.18
				c3.84,0,6.16-1.52,6.16-4.03v-0.12c0-2.38-1.46-3.6-8.6-5.43c-8.6-2.19-14.15-4.57-14.15-13.05v-0.12
				c0-7.75,6.22-12.87,14.94-12.87c6.22,0,11.53,1.95,15.86,5.43l-4.88,7.07c-3.78-2.62-7.5-4.21-11.1-4.21
				c-3.6,0-5.49,1.65-5.49,3.72v0.12c0,2.81,1.83,3.72,9.21,5.61c8.66,2.26,13.54,5.37,13.54,12.81v0.12
				C148.83,93.24,142.36,98,133.15,98z"/>
			<path class="st0" d="M189.14,97.39l-13.24-18.17l-4.94,5.12v13.05h-9.39V54.69h9.39v18.66l17.32-18.66h11.35l-17.38,18.12
				l18.18,24.58H189.14z"/>
			<path class="st0" d="M230.25,80.37v17.02h-9.39V80.55l-16.41-25.86h10.98l10.19,17.14l10.37-17.14h10.67L230.25,80.37z"/>
			<path class="st0" d="M273.74,97.39h-16.65V54.69h16.65c13.42,0,22.69,9.21,22.69,21.22v0.12
				C296.43,88.05,287.15,97.39,273.74,97.39z M286.61,76.04c0-7.56-5.19-12.87-12.87-12.87h-7.26v25.74h7.26
				c7.69,0,12.87-5.18,12.87-12.75V76.04z"/>
			<path class="st0" d="M335.28,97.39l-9.15-13.66h-7.38v13.66h-9.39V54.69h19.52c10.06,0,16.1,5.31,16.1,14.09v0.12
				c0,6.89-3.72,11.22-9.15,13.23l10.43,15.25H335.28z M335.46,69.27c0-4.03-2.81-6.1-7.38-6.1h-9.33v12.26h9.52
				c4.57,0,7.2-2.44,7.2-6.04V69.27z"/>
			<path class="st0" d="M378.77,98.12c-13.17,0-22.63-9.82-22.63-21.96v-0.12c0-12.14,9.57-22.08,22.75-22.08
				c13.17,0,22.63,9.82,22.63,21.96v0.12C401.52,88.18,391.94,98.12,378.77,98.12z M391.7,76.04c0-7.32-5.37-13.42-12.93-13.42
				c-7.56,0-12.81,5.98-12.81,13.3v0.12c0,7.32,5.37,13.42,12.93,13.42c7.56,0,12.81-5.98,12.81-13.3V76.04z"/>
			<path class="st0" d="M430.98,84.58h-7.14v12.81h-9.4V54.69h17.45c10.18,0,16.35,6.04,16.35,14.76v0.12
				C448.24,79.45,440.55,84.58,430.98,84.58z M438.72,69.64c0-4.21-2.93-6.46-7.62-6.46h-7.26v13.05h7.44c4.7,0,7.44-2.81,7.44-6.46
				V69.64z"/>
		</g>
		<polygon class="st0" points="481.43,75.61 496.86,54.67 485.55,54.67 475.69,68.52 465.9,54.67 454.36,54.67 469.72,75.73 
			453.75,97.48 465.06,97.48 475.45,82.87 485.91,97.48 497.45,97.48 		"/>
	</g>
	<path class="st1" d="M96.36,50.73c0-9.99-3.89-19.39-10.96-26.46c-14.59-14.59-38.32-14.59-52.91,0
		c-10.36,10.36-13.36,25.33-9,38.37c0.04,0.15,0.09,0.3,0.15,0.44c1.79,5.16,4.75,9.99,8.86,14.1L53.62,98.3H40.57v21.37h36.61V98.3
		h-12.9L85.4,77.18C92.47,70.12,96.36,60.72,96.36,50.73z M36.72,28.51c6.12-6.13,14.17-9.19,22.22-9.19
		c8.05,0,16.1,3.06,22.22,9.19c5.94,5.94,9.2,13.83,9.2,22.22c0,0.66-0.02,1.31-0.06,1.96c-1.41-2.16-3.04-4.17-4.9-6.03
		c-2.93-2.93-6.22-5.26-9.74-7.02c-0.1-0.06-0.21-0.11-0.32-0.16c-10.44-5.08-22.76-5.02-33.16,0.18c-0.09,0.04-0.17,0.08-0.25,0.13
		c-3.41,1.74-6.6,4.02-9.45,6.87c-1.85,1.85-3.49,3.86-4.89,6.01C27.06,43.99,30.11,35.13,36.72,28.51z M70.63,43.95L58.92,87.87
		L46.98,44.06C54.53,40.96,63.05,40.92,70.63,43.95z M29.58,61.91c1.57-4.14,3.97-7.84,7.15-11.01c1.5-1.5,3.12-2.82,4.83-3.96
		L53.1,89.31L36.72,72.95C33.49,69.71,31.1,65.94,29.58,61.91z M71.19,113.68H46.56v-9.39h24.63V113.68z M64.71,89.39l11.37-42.61
		c1.8,1.17,3.51,2.55,5.09,4.12c3.18,3.18,5.58,6.89,7.15,11.04c-1.56,4.08-3.97,7.83-7.15,11.02L64.71,89.39z"/>
</g>
</svg>
