<svg xmlns="http://www.w3.org/2000/svg" viewBox="0 0 105.558 35">
  <defs>
    <style>
      .cls-1 {
        fill: #fff;
      }
    </style>
  </defs>
  <g id="Logo" transform="translate(-618 -3628)">
    <ellipse id="XMLID_29_" class="cls-1" cx="2.038" cy="2.038" rx="2.038" ry="2.038" transform="translate(706.765 3658.695)"/>
    <path id="XMLID_27_" class="cls-1" d="M14.04,54.852A7.75,7.75,0,0,1,18.115,53.8a10.818,10.818,0,0,1,5.62,1.413v.822a10.116,10.116,0,0,0-5.587-1.479,6.879,6.879,0,0,0-3.516.854,2.786,2.786,0,0,0-1.446,2.563,2.913,2.913,0,0,0,1.183,2.4,7.685,7.685,0,0,0,2.859,1.347l3.352.887a7.328,7.328,0,0,1,2.892,1.479,3.4,3.4,0,0,1,1.183,2.695,3.5,3.5,0,0,1-1.742,3.188,8.563,8.563,0,0,1-4.4,1.052,14.246,14.246,0,0,1-3.451-.46A8.916,8.916,0,0,1,12.2,69.377v-.822a11.15,11.15,0,0,0,6.277,1.709,7.924,7.924,0,0,0,3.845-.854,2.956,2.956,0,0,0,.362-4.962,8.091,8.091,0,0,0-2.892-1.315c-1.117-.3-2.268-.592-3.385-.887a7.385,7.385,0,0,1-2.892-1.512,3.362,3.362,0,0,1-1.183-2.728A3.419,3.419,0,0,1,14.04,54.852Z" transform="translate(605.8 3591.881)"/>
    <path id="XMLID_25_" class="cls-1" d="M59.482,55.345a7.351,7.351,0,0,1,4.7-1.545v.822a6.8,6.8,0,0,0-4.9,1.808,8.456,8.456,0,0,0-2.563,4.437v9.826H55.9V54.161h.756v5.061A8.22,8.22,0,0,1,59.482,55.345Z" transform="translate(576.461 3591.881)"/>
    <path id="XMLID_22_" class="cls-1" d="M91.391,70.012H81.171A3.205,3.205,0,0,0,87.119,71.1l3.944.822c-1.183,2.958-3.714,4.371-6.9,4.371A7.394,7.394,0,0,1,84.194,61.5c3.944,0,7.1,2.826,7.2,7.394ZM81.269,67.317h5.751a2.773,2.773,0,0,0-2.793-2.2A3.035,3.035,0,0,0,81.269,67.317Z" transform="translate(562.43 3586.711)"/>
    <path id="XMLID_20_" class="cls-1" d="M138.131,67.383v8.545h-4.4V68.3a2.475,2.475,0,0,0-2.4-2.761c-1.742,0-2.892,1.183-2.892,3.878v6.474H124v-13.9h4.437v1.347a5.715,5.715,0,0,1,4.272-1.742C135.962,61.566,138.131,63.867,138.131,67.383Z" transform="translate(530.742 3586.645)"/>
    <path id="XMLID_18_" class="cls-1" d="M176.019,76.667h-4.535L165.7,62.7h4.7l3.352,8.61,3.319-8.61h4.7Z" transform="translate(502.746 3585.906)"/>
    <path id="XMLID_15_" class="cls-1" d="M248.947,69.029a7.328,7.328,0,0,1-7.624,7.361c-4.207,0-7.723-2.958-7.723-7.361s3.484-7.329,7.723-7.329A7.3,7.3,0,0,1,248.947,69.029Zm-4.272,0a3.408,3.408,0,1,0-3.352,3.615A3.472,3.472,0,0,0,244.675,69.029Z" transform="translate(457.16 3586.577)"/>
    <path id="XMLID_14_" class="cls-1" d="M216.177,42.231l1.906-4.667a2.7,2.7,0,0,0-.92-.164,2.5,2.5,0,0,0-.986,4.831Z" transform="translate(470.73 3602.891)"/>
    <rect id="XMLID_13_" class="cls-1" width="4.437" height="13.934" transform="translate(685.173 3648.638)"/>
    <path id="XMLID_9_" class="cls-1" d="M321.3,2.662l.953-2.531L318.345,0,316.8,3.549l.46.23.657-1.282Z" transform="translate(401.303 3628)"/>
    <path id="XMLID_6_" class="cls-1" d="M292.688,6.129,289.5,12.176,292.261,5.9l-5.127-2.4-2.169,4.732L280.2,7.838l3.746,1.643-1.577,4.732,1.775.46V19.11l6.967-1.742,3.714-10.221Zm-6.606,5.685a.46.46,0,1,1,.46-.46A.449.449,0,0,1,286.083,11.815Z" transform="translate(425.875 3625.65)"/>
  </g>
</svg>
