<svg xmlns="http://www.w3.org/2000/svg" width="132.5" height="28.255" viewBox="0 0 132.5 28.255"><defs><style>.a{fill:#48486a;}.b{fill:#ff9800;}</style></defs><g transform="translate(0 0.024)"><path class="a" d="M53.624,20.383H39.6c.536,2.323,2.055,3.663,4.11,3.663a4.321,4.321,0,0,0,4.11-2.234l5.45,1.072c-1.608,4.021-5.093,5.986-9.471,5.986A9.886,9.886,0,0,1,33.7,18.685,9.96,9.96,0,0,1,43.885,8.5c5.271.089,9.56,4.021,9.739,10.275ZM39.686,16.63h7.862a3.791,3.791,0,0,0-3.842-3.038A4.152,4.152,0,0,0,39.686,16.63Z" transform="translate(-3.59 -0.908)"/><path class="a" d="M78.213,16.82V28.882H71.959V18.16c0-2.323-1.34-3.842-3.4-3.842-2.5,0-4.11,1.7-4.11,5.45v9.113H58.2V9.225h6.254V11.1A8.072,8.072,0,0,1,70.53,8.6C75.176,8.6,78.213,11.906,78.213,16.82Z" transform="translate(-6.201 -0.919)"/><path class="a" d="M95.621,28.971H89.009L80.7,8.6h6.79L92.4,21.108,97.229,8.6h6.79Z" transform="translate(-8.598 -0.919)"/><path class="a" d="M139.775,18.8c0,6.076-4.825,10.185-10.543,10.185-5.807,0-10.632-4.11-10.632-10.185s4.825-10.1,10.632-10.1C134.95,8.61,139.775,12.72,139.775,18.8Zm-5.9,0a4.7,4.7,0,1,0-9.381,0,4.7,4.7,0,1,0,9.381,0Z" transform="translate(-12.636 -0.929)"/><g transform="translate(97.476 -0.024)"><path class="b" d="M110.671,5.716,115.138.8a3.09,3.09,0,0,0-1.072-.625,3.3,3.3,0,0,0-3.4,5.539Z" transform="translate(-109.152 0.024)"/><rect class="a" width="6.433" height="20.282" transform="translate(0 7.705)"/></g><g transform="translate(0 5.448)"><path class="b" d="M14.653,19.591A10.6,10.6,0,0,0,10.722,17.8c-1.43-.357-2.77-.715-4.2-1.072A8.646,8.646,0,0,1,3.4,15.124a3.244,3.244,0,0,1-1.072-2.5A3.263,3.263,0,0,1,3.931,9.674,8.721,8.721,0,0,1,8.4,8.512a12.734,12.734,0,0,1,6.433,1.608l.357.179V7.619L15.1,7.53A15.931,15.931,0,0,0,8.488,6.1,10.8,10.8,0,0,0,2.68,7.619,5.311,5.311,0,0,0,0,12.533a5.623,5.623,0,0,0,1.876,4.289A10.252,10.252,0,0,0,5.9,18.966c1.43.357,2.77.8,4.2,1.161a9.218,9.218,0,0,1,3.127,1.43,2.261,2.261,0,0,1,.983,1.966,2.457,2.457,0,0,1-1.34,2.234,8.364,8.364,0,0,1-4.2.893,12.429,12.429,0,0,1-7.148-1.966L0,23.433v2.859l.357.268a15.167,15.167,0,0,0,8.4,2.323,10.81,10.81,0,0,0,5.361-1.251,4.758,4.758,0,0,0,.536-8.041Z" transform="translate(0 -6.1)"/><path class="b" d="M32.1,6.189a11.6,11.6,0,0,0-9.381,4.735V6.1H20.4V28.883h2.323V17.09a1.967,1.967,0,0,1,.089-.715c.089-.447.179-.8.268-1.251a9.276,9.276,0,0,1,2.68-4.378h0a8.964,8.964,0,0,1,5.718-2.412h.893V6.189Z" transform="translate(-2.173 -6.1)"/></g><circle class="a" cx="2.68" cy="2.68" r="2.68" transform="translate(127.139 22.602)"/></g></svg>